<?xml version="1.0" encoding="utf-8"?>
<!-- Generator: Adobe Illustrator 21.0.0, SVG Export Plug-In . SVG Version: 6.00 Build 0)  -->
<svg version="1.1" id="Layer_1" xmlns="http://www.w3.org/2000/svg" xmlns:xlink="http://www.w3.org/1999/xlink" x="0px" y="0px"
	 viewBox="0 0 16.2 14.7" style="enable-background:new 0 0 16.2 14.7;" xml:space="preserve">
<style type="text/css">
	.st0{fill:#00D66C;}
	.st1{fill:#FFFFFF;}
</style>
<g>
	<path class="st0" d="M13.9,14.7H2.3c-0.9,0-1.6-0.7-1.6-1.6V1.6C0.8,0.7,1.5,0,2.3,0h11.5c0.9,0,1.6,0.7,1.6,1.6v11.5
		C15.4,14,14.7,14.7,13.9,14.7z"/>
	<path class="st1" d="M11.9,5.1H4.3C4.1,5.1,3.9,5,3.9,4.8V4.5c0-0.2,0.1-0.3,0.3-0.3h7.7c0.2,0,0.3,0.1,0.3,0.3v0.3
		C12.3,5,12.1,5.1,11.9,5.1z"/>
	<path class="st1" d="M11.9,7.8H4.3c-0.2,0-0.3-0.1-0.3-0.3V7.2c0-0.2,0.1-0.3,0.3-0.3h7.7c0.2,0,0.3,0.1,0.3,0.3v0.3
		C12.3,7.7,12.1,7.8,11.9,7.8z"/>
	<path class="st1" d="M11.9,10.5H4.3c-0.2,0-0.3-0.1-0.3-0.3V9.9c0-0.2,0.1-0.3,0.3-0.3h7.7c0.2,0,0.3,0.1,0.3,0.3v0.3
		C12.3,10.4,12.1,10.5,11.9,10.5z"/>
	<path class="st1" d="M5.9,5.4H5.2C5,5.4,4.9,5.3,4.9,5.1v-1C4.9,4,5,3.8,5.2,3.8h0.6C6,3.8,6.2,4,6.2,4.2v1C6.2,5.3,6,5.4,5.9,5.4z
		"/>
	<path class="st1" d="M9.7,8.1H9.1C8.9,8.1,8.7,8,8.7,7.8v-1c0-0.2,0.1-0.3,0.3-0.3h0.6c0.2,0,0.3,0.1,0.3,0.3v1
		C10,8,9.9,8.1,9.7,8.1z"/>
	<path class="st1" d="M7.8,10.9H7.1c-0.2,0-0.3-0.1-0.3-0.3v-1c0-0.2,0.1-0.3,0.3-0.3h0.6c0.2,0,0.3,0.1,0.3,0.3v1
		C8.1,10.7,8,10.9,7.8,10.9z"/>
</g>
</svg>
